# xmcd
#
# Track frame offsets:
#	150
#	14254
#	28967
#	46112
#	62171
#	75967
#	88405
#	104071
#	120331
#	135901
#
# Disc length: 1986 seconds
#
# Revision: 6
# Processed by: cddbd v1.5.1PL0 Copyright (c) Steve Scherf et al.
# Submitted via: audiograbber 1.83.01
#
DISCID=7907c00a
DTITLE=Lorrie Morgan - Super Hits
DYEAR=1998
DGENRE=Country
TTITLE0=We Both Walk
TTITLE1=Out Of Your Shoes
TTITLE2=Half Enough
TTITLE3=Five Minutes
TTITLE4=Gonna Leave The Light On
TTITLE5=What Part Of No
TTITLE6=He Talks To Me
TTITLE7=Watch Me
TTITLE8=Good As I Was To You
TTITLE9=By My Side (Duet With Jon Randall)
EXTD=ID3G: 2
EXTT0=
EXTT1=
EXTT2=
EXTT3=
EXTT4=
EXTT5=
EXTT6=
EXTT7=
EXTT8=
EXTT9=
PLAYORDER=
